<svg width="20" height="19" viewBox="0 0 20 19" fill="none" xmlns="http://www.w3.org/2000/svg">
<path d="M14.0203 8.23189C14.4364 8.23303 14.8487 8.1516 15.2332 7.99232C15.6177 7.83304 15.9667 7.59907 16.2602 7.30395L19.3084 4.25767C19.5495 4.01658 19.5717 3.62427 19.3421 3.3713C19.2844 3.30775 19.2145 3.25657 19.1364 3.22086C19.0584 3.18516 18.974 3.16568 18.8882 3.16361C18.8024 3.16154 18.7171 3.17691 18.6375 3.2088C18.5578 3.2407 18.4855 3.28844 18.4248 3.34913L15.7079 6.06406C15.6167 6.15517 15.493 6.20635 15.3641 6.20635C15.2352 6.20635 15.1115 6.15517 15.0203 6.06406C14.8306 5.87483 14.8409 5.55496 15.0302 5.36573L17.7352 2.6607C17.7958 2.60006 17.8435 2.52774 17.8754 2.44813C17.9072 2.36851 17.9226 2.28325 17.9205 2.19753C17.9184 2.1118 17.899 2.02739 17.8633 1.9494C17.8276 1.87142 17.7765 1.80149 17.713 1.74385C17.5984 1.63988 17.4489 1.58267 17.2942 1.58352C17.2073 1.58356 17.1213 1.60071 17.0411 1.63399C16.9609 1.66728 16.888 1.71604 16.8267 1.7775L14.124 4.47976C14.0328 4.57087 13.9091 4.62205 13.7802 4.62205C13.6512 4.62205 13.5276 4.57087 13.4364 4.47976C13.2471 4.29053 13.257 3.97066 13.4463 3.78143L16.1513 1.07719C16.2119 1.01655 16.2596 0.944234 16.2915 0.864617C16.3233 0.785 16.3387 0.699745 16.3366 0.614017C16.3345 0.52829 16.3151 0.443876 16.2794 0.365892C16.2437 0.287907 16.1926 0.217977 16.1291 0.16034C16.0145 0.0563672 15.865 -0.000842253 15.7103 9.37305e-06C15.5349 0.000216984 15.3668 0.0699777 15.2427 0.193989L12.1965 3.24027C11.9013 3.53377 11.6674 3.8829 11.5081 4.26745C11.3488 4.65199 11.2674 5.06431 11.2685 5.48054V5.80635C11.2686 5.88964 11.2522 5.97214 11.2204 6.0491C11.1885 6.12607 11.1418 6.19599 11.0829 6.25487L9.67315 7.66499C9.65844 7.67971 9.64098 7.69139 9.62175 7.69936C9.60253 7.70733 9.58192 7.71143 9.56111 7.71143C9.5403 7.71143 9.5197 7.70733 9.50047 7.69936C9.48125 7.69139 9.46379 7.67971 9.44908 7.66499L2.58931 0.804828C2.47092 0.686299 2.31039 0.619502 2.14286 0.619057C1.97533 0.618611 1.81445 0.684555 1.69542 0.802453C1.09567 1.39667 0.775404 2.23553 0.775404 3.22799C0.771445 4.86693 1.63287 6.7513 3.02359 8.14004L6.40637 11.5228C6.88718 12.0026 7.53866 12.2721 8.2179 12.2722C8.43445 12.2723 8.65011 12.2446 8.85962 12.1899C8.91222 12.1761 8.96636 12.169 9.02074 12.1689C9.17975 12.1689 9.33289 12.229 9.44948 12.3371L9.90038 12.7536C10.0167 12.8724 10.082 13.0319 10.0825 13.1982V13.4175C10.0813 13.9161 10.2773 14.3949 10.6276 14.7496L14.1925 18.3747L14.196 18.3786C14.5917 18.7742 15.1283 18.9965 15.6879 18.9964C16.2474 18.9964 16.784 18.7741 17.1796 18.3784C17.5752 17.9828 17.7974 17.4461 17.7974 16.8866C17.7974 16.3271 17.575 15.7905 17.1794 15.3949L11.8358 10.0513C11.8211 10.0366 11.8094 10.0192 11.8015 9.99995C11.7935 9.98072 11.7894 9.96012 11.7894 9.93931C11.7894 9.9185 11.7935 9.89789 11.8015 9.87867C11.8094 9.85944 11.8211 9.84198 11.8358 9.82727L13.2455 8.41755C13.3044 8.35868 13.3742 8.31198 13.4511 8.28012C13.528 8.24826 13.6104 8.23187 13.6937 8.23189H14.0203Z" fill="url(#paint0_linear_6237_407)"/>
<path d="M8.21782 13.5369C7.20371 13.5348 6.23133 13.1329 5.5116 12.4185L4.96291 11.8698C4.90354 11.8106 4.8231 11.7773 4.73924 11.7773C4.65538 11.7773 4.57494 11.8106 4.51557 11.8698L1.15061 15.2174C0.550857 15.8171 0.336687 16.6999 0.633595 17.5645C0.650249 17.6132 0.66995 17.6608 0.692581 17.707C1.09202 18.5249 1.86715 19 2.71512 19C3.00674 19.0007 3.2956 18.9435 3.56497 18.8318C3.83434 18.7201 4.07886 18.5561 4.28438 18.3492L8.77204 13.8401C8.79093 13.8208 8.8054 13.7977 8.81442 13.7722C8.82344 13.7468 8.82682 13.7197 8.8243 13.6928V13.6826C8.82254 13.6579 8.8158 13.6338 8.80448 13.6118C8.79317 13.5898 8.77751 13.5703 8.75846 13.5545C8.73941 13.5387 8.71736 13.5269 8.69364 13.5199C8.66991 13.5128 8.64501 13.5107 8.62042 13.5135C8.48672 13.5283 8.35233 13.5361 8.21782 13.5369Z" fill="url(#paint1_linear_6237_407)"/>
<defs>
<linearGradient id="paint0_linear_6237_407" x1="10.1389" y1="0" x2="10.1389" y2="18.9964" gradientUnits="userSpaceOnUse">
<stop stop-color="#FF6600"/>
<stop offset="1" stop-color="#FF9800"/>
</linearGradient>
<linearGradient id="paint1_linear_6237_407" x1="4.66304" y1="11.7773" x2="4.66304" y2="19" gradientUnits="userSpaceOnUse">
<stop stop-color="#FF6600"/>
<stop offset="1" stop-color="#FF9800"/>
</linearGradient>
</defs>
</svg>
