<svg width="20" height="21" viewBox="0 0 20 21" fill="none" xmlns="http://www.w3.org/2000/svg">
<path opacity="0.16" d="M2 18V11H18V18C18 18.5304 17.7893 19.0391 17.4142 19.4142C17.0391 19.7893 16.5304 20 16 20H4C3.46957 20 2.96086 19.7893 2.58579 19.4142C2.21071 19.0391 2 18.5304 2 18Z" fill="url(#paint0_linear_6237_406)"/>
<path d="M10 11V19M2 10V18C2 18.5304 2.21071 19.0391 2.58579 19.4142C2.96086 19.7893 3.46957 20 4 20H16C16.5304 20 17.0391 19.7893 17.4142 19.4142C17.7893 19.0391 18 18.5304 18 18V10" stroke="url(#paint1_linear_6237_406)" stroke-width="2" stroke-linecap="round" stroke-linejoin="round"/>
<path d="M10 4.5C10 3.57174 9.63125 2.6815 8.97487 2.02513C8.3185 1.36875 7.42826 1 6.5 1C5.83696 1 5.20107 1.26339 4.73223 1.73223C4.26339 2.20107 4 2.83696 4 3.5C4 4.16304 4.26339 4.79893 4.73223 5.26777C5.20107 5.73661 5.83696 6 6.5 6H10M10 4.5V6M10 4.5C10 3.57174 10.3687 2.6815 11.0251 2.02513C11.6815 1.36875 12.5717 1 13.5 1C14.163 1 14.7989 1.26339 15.2678 1.73223C15.7366 2.20107 16 2.83696 16 3.5C16 3.8283 15.9353 4.15339 15.8097 4.45671C15.6841 4.76002 15.4999 5.03562 15.2678 5.26777C15.0356 5.49991 14.76 5.68406 14.4567 5.8097C14.1534 5.93534 13.8283 6 13.5 6H10" stroke="url(#paint2_linear_6237_406)" stroke-width="2" stroke-linejoin="round"/>
<path d="M10 10V20M1 6H19V10H1V6Z" stroke="url(#paint3_linear_6237_406)" stroke-width="2" stroke-linecap="round" stroke-linejoin="round"/>
<defs>
<linearGradient id="paint0_linear_6237_406" x1="10" y1="11" x2="10" y2="20" gradientUnits="userSpaceOnUse">
<stop stop-color="#FF6600"/>
<stop offset="1" stop-color="#FF9800"/>
</linearGradient>
<linearGradient id="paint1_linear_6237_406" x1="10" y1="10" x2="10" y2="20" gradientUnits="userSpaceOnUse">
<stop stop-color="#FF6600"/>
<stop offset="1" stop-color="#FF9800"/>
</linearGradient>
<linearGradient id="paint2_linear_6237_406" x1="10" y1="1" x2="10" y2="6" gradientUnits="userSpaceOnUse">
<stop stop-color="#FF6600"/>
<stop offset="1" stop-color="#FF9800"/>
</linearGradient>
<linearGradient id="paint3_linear_6237_406" x1="10" y1="6" x2="10" y2="20" gradientUnits="userSpaceOnUse">
<stop stop-color="#FF6600"/>
<stop offset="1" stop-color="#FF9800"/>
</linearGradient>
</defs>
</svg>
